<svg width="40" height="40" viewBox="0 0 40 40" fill="none" xmlns="http://www.w3.org/2000/svg">
<path d="M20 38.1353C30.0158 38.1353 38.1353 30.0158 38.1353 20C38.1353 9.98417 30.0158 1.86473 20 1.86473C9.98417 1.86473 1.86473 9.98417 1.86473 20C1.86473 30.0158 9.98417 38.1353 20 38.1353Z" fill="#4BBAFB" stroke="white" stroke-width="2.27054"/>
<path fill-rule="evenodd" clip-rule="evenodd" d="M19.0833 19.0834V13.5834C19.0833 13.0771 19.4937 12.6667 20 12.6667C20.5063 12.6667 20.9167 13.0771 20.9167 13.5834V19.0834H26.4167C26.9229 19.0834 27.3333 19.4938 27.3333 20C27.3333 20.5063 26.9229 20.9167 26.4167 20.9167H20.9167V26.4167C20.9167 26.9229 20.5063 27.3334 20 27.3334C19.4937 27.3334 19.0833 26.9229 19.0833 26.4167V20.9167H13.5833C13.0771 20.9167 12.6667 20.5063 12.6667 20C12.6667 19.4938 13.0771 19.0834 13.5833 19.0834H19.0833Z" fill="black"/>
<mask id="mask0" mask-type="alpha" maskUnits="userSpaceOnUse" x="12" y="12" width="16" height="16">
<path fill-rule="evenodd" clip-rule="evenodd" d="M19.0833 19.0834V13.5834C19.0833 13.0771 19.4937 12.6667 20 12.6667C20.5063 12.6667 20.9167 13.0771 20.9167 13.5834V19.0834H26.4167C26.9229 19.0834 27.3333 19.4938 27.3333 20C27.3333 20.5063 26.9229 20.9167 26.4167 20.9167H20.9167V26.4167C20.9167 26.9229 20.5063 27.3334 20 27.3334C19.4937 27.3334 19.0833 26.9229 19.0833 26.4167V20.9167H13.5833C13.0771 20.9167 12.6667 20.5063 12.6667 20C12.6667 19.4938 13.0771 19.0834 13.5833 19.0834H19.0833Z" fill="white"/>
</mask>
<g mask="url(#mask0)">
<rect x="9" y="9" width="22" height="22" fill="white"/>
</g>
</svg>
