<?xml version="1.0" encoding="UTF-8"?>
<svg width="30px" height="20px" viewBox="0 0 30 20" version="1.1" xmlns="http://www.w3.org/2000/svg" xmlns:xlink="http://www.w3.org/1999/xlink">
    <!-- Generator: Sketch 55 (78076) - https://sketchapp.com -->
    <title>eye</title>
    <desc>Created with Sketch.</desc>
    <g id="Dashboard" stroke="none" stroke-width="1" fill="none" fill-rule="evenodd">
        <g id="eye" fill="#949FB0" fill-rule="nonzero">
            <path d="M14.9787447,6.02286604 C12.7251064,6.02286604 10.8936383,7.8105919 10.8936383,10.010405 C10.8936383,12.2102181 12.7251064,13.9979439 14.9787447,13.9979439 C17.232383,13.9979439 19.0638511,12.2102181 19.0638511,10.010405 C19.0638511,7.8105919 17.2323191,6.02286604 14.9787447,6.02286604 Z" id="Path"></path>
            <path d="M14.9787447,0.0415576324 C8.17021277,0.0415576324 2.35576596,4.1752648 0,10.010405 C2.35576596,15.8454829 8.17021277,19.9792523 14.9787447,19.9792523 C21.7940426,19.9792523 27.6017234,15.8454829 29.9574894,10.010405 C27.6017234,4.1752648 21.7940426,0.0415576324 14.9787447,0.0415576324 Z M14.9787447,16.6562617 C11.2204468,16.6562617 8.17021277,13.6788785 8.17021277,10.0103427 C8.17021277,6.34180685 11.2204468,3.36448598 14.9787447,3.36448598 C18.7370426,3.36448598 21.7872766,6.34186916 21.7872766,10.010405 C21.7872766,13.6789408 18.7370426,16.6562617 14.9787447,16.6562617 Z" id="Shape"></path>
        </g>
    </g>
</svg>