<svg width="21" height="21" viewBox="0 0 21 21" fill="none" xmlns="http://www.w3.org/2000/svg">
<path d="M17 9C17.5523 9 18 8.55228 18 8C18 7.44772 17.5523 7 17 7C16.4477 7 16 7.44772 16 8C16 8.55228 16.4477 9 17 9Z" fill="white"/>
<path d="M17.7188 1.64062H16.6523V0.820312C16.6523 0.367254 16.2851 0 15.832 0C15.379 0 15.0117 0.367254 15.0117 0.820312V1.64062H11.2793V0.820312C11.2793 0.367254 10.912 0 10.459 0C10.0059 0 9.63867 0.367254 9.63867 0.820312V1.64062H5.94727V0.820312C5.94727 0.367254 5.58001 0 5.12695 0C4.67389 0 4.30664 0.367254 4.30664 0.820312V1.64062H3.28125C1.47197 1.64062 0 3.11259 0 4.92188V17.7188C0 19.528 1.47197 21 3.28125 21H9.55664C10.0097 21 10.377 20.6327 10.377 20.1797C10.377 19.7266 10.0097 19.3594 9.55664 19.3594H3.28125C2.37661 19.3594 1.64062 18.6234 1.64062 17.7188V4.92188C1.64062 4.01723 2.37661 3.28125 3.28125 3.28125H4.30664V4.10156C4.30664 4.55462 4.67389 4.92188 5.12695 4.92188C5.58001 4.92188 5.94727 4.55462 5.94727 4.10156V3.28125H9.63867V4.10156C9.63867 4.55462 10.0059 4.92188 10.459 4.92188C10.912 4.92188 11.2793 4.55462 11.2793 4.10156V3.28125H15.0117V4.10156C15.0117 4.55462 15.379 4.92188 15.832 4.92188C16.2851 4.92188 16.6523 4.55462 16.6523 4.10156V3.28125H17.7188C18.6234 3.28125 19.3594 4.01723 19.3594 4.92188V9.59766C19.3594 10.0507 19.7266 10.418 20.1797 10.418C20.6327 10.418 21 10.0507 21 9.59766V4.92188C21 3.11259 19.528 1.64062 17.7188 1.64062Z" fill="white"/>
<path fill-rule="evenodd" clip-rule="evenodd" d="M11 16C11 13.243 13.243 11 16 11C18.757 11 21 13.243 21 16C21 18.757 18.757 21 16 21C13.243 21 11 18.757 11 16ZM12.6529 16C12.6529 17.8456 14.1544 19.3471 16 19.3471C17.8456 19.3471 19.3471 17.8456 19.3471 16C19.3471 14.1544 17.8456 12.6529 16 12.6529C14.1544 12.6529 12.6529 14.1544 12.6529 16Z" fill="white"/>
<path d="M17.1304 15.5185H16.7391V14.7407C16.7391 14.3316 16.3498 14 15.8696 14C15.3893 14 15 14.3316 15 14.7407V16.2593C15 16.6684 15.3893 17 15.8696 17H17.1304C17.6107 17 18 16.6684 18 16.2593C18 15.8501 17.6107 15.5185 17.1304 15.5185Z" fill="white"/>
<path d="M13 9C13.5523 9 14 8.55228 14 8C14 7.44772 13.5523 7 13 7C12.4477 7 12 7.44772 12 8C12 8.55228 12.4477 9 13 9Z" fill="white"/>
<path d="M9 13C9.55228 13 10 12.5523 10 12C10 11.4477 9.55228 11 9 11C8.44772 11 8 11.4477 8 12C8 12.5523 8.44772 13 9 13Z" fill="white"/>
<path d="M5 9C5.55228 9 6 8.55228 6 8C6 7.44772 5.55228 7 5 7C4.44772 7 4 7.44772 4 8C4 8.55228 4.44772 9 5 9Z" fill="white"/>
<path d="M5 13C5.55228 13 6 12.5523 6 12C6 11.4477 5.55228 11 5 11C4.44772 11 4 11.4477 4 12C4 12.5523 4.44772 13 5 13Z" fill="white"/>
<path d="M5 17C5.55228 17 6 16.5523 6 16C6 15.4477 5.55228 15 5 15C4.44772 15 4 15.4477 4 16C4 16.5523 4.44772 17 5 17Z" fill="white"/>
<path d="M9 17C9.55228 17 10 16.5523 10 16C10 15.4477 9.55228 15 9 15C8.44772 15 8 15.4477 8 16C8 16.5523 8.44772 17 9 17Z" fill="white"/>
<path d="M9 9C9.55228 9 10 8.55228 10 8C10 7.44772 9.55228 7 9 7C8.44772 7 8 7.44772 8 8C8 8.55228 8.44772 9 9 9Z" fill="white"/>
</svg>
