<svg width="26" height="26" viewBox="0 0 26 26" fill="none" xmlns="http://www.w3.org/2000/svg">
<path fill-rule="evenodd" clip-rule="evenodd" d="M25.5231 23.353L18.4046 16.2314C19.6806 14.491 20.3642 12.3869 20.3547 10.2288C20.3303 4.59556 15.7742 0.0326398 10.1412 0.000103481C7.44549 -0.0120935 4.85687 1.05437 2.95201 2.96193C1.04715 4.86948 -0.0157207 7.45966 0.000175781 10.1555C0.0245226 15.7892 4.58105 20.3526 10.2146 20.3851C12.3813 20.3945 14.493 19.7029 16.2345 18.4136L16.242 18.4081L23.354 25.5241C23.7385 25.9275 24.3115 26.0908 24.8509 25.9507C25.3903 25.8106 25.8114 25.3891 25.951 24.8495C26.0906 24.31 25.9269 23.7371 25.5231 23.353ZM10.2071 18.3459C5.70057 18.3199 2.05541 14.6697 2.03562 10.1629C2.02346 8.00653 2.87383 5.9348 4.39743 4.40887C5.92103 2.88294 7.99141 2.02946 10.1477 2.03842C14.6543 2.06434 18.2994 5.71462 18.3192 10.2214C18.3314 12.3777 17.481 14.4495 15.9574 15.9754C14.4338 17.5013 12.3634 18.3548 10.2071 18.3459Z" fill="#B1B8BC"/>
</svg>
